<svg xmlns="http://www.w3.org/2000/svg" width="1200" height="760" viewBox="0 0 300 190"><title>BHB Business Hub Business Centre</title><g transform="translate(29 14)"><path fill="#fffff0" fill-rule="evenodd" d="M5 5h44c28 0 35 29 18 42 22 13 14 42-15 42H5V5zm16 15v20h26c16 0 17-20 0-20H21zm0 35v19h29c16 0 16-19 0-19H21zM165 5h44c28 0 35 29 18 42 22 13 14 42-15 42h-47V5zm16 15v20h26c16 0 17-20 0-20h-26zm0 35v19h29c16 0 16-19 0-19h-29z"/><path fill="#c5a36a" d="M88 5h15v84H88zM140 5h15v84h-15zM108 43l14-14 13 14v25l-13-16-14 16z"/></g><text x="37.72999868392944" y="142" fill="#fffff0" font-family="Arial" font-weight="600" font-size="22">B</text><text x="58.91999902725219" y="142" fill="#fffff0" font-family="Arial" font-weight="600" font-size="22">U</text><text x="80.10999937057494" y="142" fill="#fffff0" font-family="Arial" font-weight="600" font-size="22">S</text><text x="100.07999944686888" y="142" fill="#fffff0" font-family="Arial" font-weight="600" font-size="22">I</text><text x="111.48999958038328" y="142" fill="#fffff0" font-family="Arial" font-weight="600" font-size="22">N</text><text x="132.67999992370605" y="142" fill="#fffff0" font-family="Arial" font-weight="600" font-size="22">E</text><text x="152.65" y="142" fill="#fffff0" font-family="Arial" font-weight="600" font-size="22">S</text><text x="172.62000007629396" y="142" fill="#fffff0" font-family="Arial" font-weight="600" font-size="22">S</text><text x="204.00000028610233" y="142" fill="#fffff0" font-family="Arial" font-weight="600" font-size="22">H</text><text x="225.1900006294251" y="142" fill="#fffff0" font-family="Arial" font-weight="600" font-size="22">U</text><text x="246.38000097274787" y="142" fill="#fffff0" font-family="Arial" font-weight="600" font-size="22">B</text><text x="58.42500019073486" y="165" fill="#fffff0" font-family="Arial" font-weight="400" font-size="10.5">B</text><text x="71.42500019073486" y="165" fill="#fffff0" font-family="Arial" font-weight="400" font-size="10.5">U</text><text x="85.00500011444092" y="165" fill="#fffff0" font-family="Arial" font-weight="400" font-size="10.5">S</text><text x="98.00500011444092" y="165" fill="#fffff0" font-family="Arial" font-weight="400" font-size="10.5">I</text><text x="106.92500019073486" y="165" fill="#fffff0" font-family="Arial" font-weight="400" font-size="10.5">N</text><text x="120.50500011444092" y="165" fill="#fffff0" font-family="Arial" font-weight="400" font-size="10.5">E</text><text x="133.50500011444092" y="165" fill="#fffff0" font-family="Arial" font-weight="400" font-size="10.5">S</text><text x="146.50500011444092" y="165" fill="#fffff0" font-family="Arial" font-weight="400" font-size="10.5">S</text><text x="168.42500019073486" y="165" fill="#fffff0" font-family="Arial" font-weight="400" font-size="10.5">C</text><text x="182.00500011444092" y="165" fill="#fffff0" font-family="Arial" font-weight="400" font-size="10.5">E</text><text x="195.00500011444092" y="165" fill="#fffff0" font-family="Arial" font-weight="400" font-size="10.5">N</text><text x="208.58500003814697" y="165" fill="#fffff0" font-family="Arial" font-weight="400" font-size="10.5">T</text><text x="220.99499988555908" y="165" fill="#fffff0" font-family="Arial" font-weight="400" font-size="10.5">R</text><text x="234.57499980926514" y="165" fill="#fffff0" font-family="Arial" font-weight="400" font-size="10.5">E</text></svg>