<?xml version="1.0" encoding="utf-8" ?>
<svg xmlns="http://www.w3.org/2000/svg" xmlns:xlink="http://www.w3.org/1999/xlink" width="1200" height="760">
	<path fill="#FFFFF0" transform="matrix(4 0 0 4 116 56)" d="M5 5L49 5C77 5 84 34 67 47C89 60 81 89 52 89L5 89L5 5ZM21 20L21 40L47 40C63 40 64 20 47 20L21 20ZM21 55L21 74L50 74C66 74 66 55 50 55L21 55ZM165 5L209 5C237 5 244 34 227 47C249 60 241 89 212 89L165 89L165 5ZM181 20L181 40L207 40C223 40 224 20 207 20L181 20ZM181 55L181 74L210 74C226 74 226 55 210 55L181 55Z" fill-rule="evenodd"/>
	<path fill="#C5A36A" transform="matrix(4 0 0 4 116 56)" d="M88 5L103 5L103 89L88 89L88 5ZM140 5L155 5L155 89L140 89L140 5ZM108 43L122 29L135 43L135 68L122 52L108 68L108 43Z"/>
	<path fill="#FFFFF0" transform="matrix(4 0 0 4 150.92 568)" d="M1.6113281 -15.748047L7.90625 -15.748047Q9.7753906 -15.748047 10.693848 -15.592285Q11.612305 -15.436523 12.337402 -14.942383Q13.0625 -14.448242 13.545898 -13.626465Q14.029297 -12.804688 14.029297 -11.78418Q14.029297 -10.677734 13.433105 -9.7539062Q12.836914 -8.8300781 11.816406 -8.3681641Q13.255859 -7.9492188 14.029297 -6.9394531Q14.802734 -5.9296875 14.802734 -4.5654297Q14.802734 -3.4912109 14.303223 -2.4760742Q13.803711 -1.4609375 12.938965 -0.85400391Q12.074219 -0.24707031 10.806641 -0.10742188Q10.011719 -0.021484375 6.9716797 0L1.6113281 0L1.6113281 -15.748047ZM4.7910156 -13.126953L4.7910156 -9.4853516L6.875 -9.4853516Q8.7333984 -9.4853516 9.1845703 -9.5390625Q10.000977 -9.6357422 10.468262 -10.103027Q10.935547 -10.570312 10.935547 -11.333008Q10.935547 -12.063477 10.532715 -12.52002Q10.129883 -12.976562 9.3349609 -13.073242Q8.8623047 -13.126953 6.6171875 -13.126953L4.7910156 -13.126953ZM4.7910156 -6.8642578L4.7910156 -2.6533203L7.734375 -2.6533203Q9.453125 -2.6533203 9.9150391 -2.75Q10.624023 -2.8789062 11.069824 -3.378418Q11.515625 -3.8779297 11.515625 -4.7158203Q11.515625 -5.4248047 11.171875 -5.9189453Q10.828125 -6.4130859 10.178223 -6.6386719Q9.5283203 -6.8642578 7.3583984 -6.8642578L4.7910156 -6.8642578Z"/>
	<path fill="#FFFFF0" transform="matrix(4 0 0 4 235.68 568)" d="M1.5791016 -15.748047L4.7587891 -15.748047L4.7587891 -7.21875Q4.7587891 -5.1884766 4.8769531 -4.5869141Q5.0810547 -3.6201172 5.8491211 -3.034668Q6.6171875 -2.4492188 7.9492188 -2.4492188Q9.3027344 -2.4492188 9.9902344 -3.0024414Q10.677734 -3.5556641 10.817383 -4.3613281Q10.957031 -5.1669922 10.957031 -7.0361328L10.957031 -15.748047L14.136719 -15.748047L14.136719 -7.4765625Q14.136719 -4.640625 13.878906 -3.4697266Q13.621094 -2.2988281 12.928223 -1.4931641Q12.235352 -0.6875 11.075195 -0.20947266Q9.9150391 0.26855469 8.0458984 0.26855469Q5.7900391 0.26855469 4.6245117 -0.25244141Q3.4589844 -0.7734375 2.7822266 -1.605957Q2.1054688 -2.4384766 1.890625 -3.3515625Q1.5791016 -4.7050781 1.5791016 -7.3476562L1.5791016 -15.748047Z"/>
	<path fill="#FFFFF0" transform="matrix(4 0 0 4 320.44 568)" d="M0.79492188 -5.1240234L3.8886719 -5.4248047Q4.1679688 -3.8671875 5.0219727 -3.1367188Q5.8759766 -2.40625 7.3261719 -2.40625Q8.8623047 -2.40625 9.6411133 -3.0561523Q10.419922 -3.7060547 10.419922 -4.5761719Q10.419922 -5.1347656 10.092285 -5.5268555Q9.7646484 -5.9189453 8.9482422 -6.2089844Q8.3896484 -6.4023438 6.4023438 -6.8964844Q3.8457031 -7.5302734 2.8144531 -8.4541016Q1.3642578 -9.7539062 1.3642578 -11.623047Q1.3642578 -12.826172 2.0463867 -13.873535Q2.7285156 -14.920898 4.012207 -15.46875Q5.2958984 -16.016602 7.1113281 -16.016602Q10.076172 -16.016602 11.574707 -14.716797Q13.073242 -13.416992 13.148438 -11.24707L9.96875 -11.107422Q9.7646484 -12.321289 9.0932617 -12.853027Q8.421875 -13.384766 7.0791016 -13.384766Q5.6933594 -13.384766 4.9091797 -12.81543Q4.4042969 -12.450195 4.4042969 -11.837891Q4.4042969 -11.279297 4.8769531 -10.881836Q5.4785156 -10.376953 7.7988281 -9.8291016Q10.119141 -9.28125 11.230957 -8.6958008Q12.342773 -8.1103516 12.971191 -7.0952148Q13.599609 -6.0800781 13.599609 -4.5869141Q13.599609 -3.2333984 12.847656 -2.0517578Q12.095703 -0.87011719 10.720703 -0.29541016Q9.3457031 0.27929688 7.2939453 0.27929688Q4.3076172 0.27929688 2.7070312 -1.1010742Q1.1064453 -2.4814453 0.79492188 -5.1240234Z"/>
	<path fill="#FFFFF0" transform="matrix(4 0 0 4 400.32 568)" d="M1.5039062 0L1.5039062 -15.748047L4.6835938 -15.748047L4.6835938 0L1.5039062 0Z"/>
	<path fill="#FFFFF0" transform="matrix(4 0 0 4 445.96 568)" d="M1.6328125 0L1.6328125 -15.748047L4.7265625 -15.748047L11.171875 -5.2314453L11.171875 -15.748047L14.125977 -15.748047L14.125977 0L10.935547 0L4.5869141 -10.269531L4.5869141 0L1.6328125 0Z"/>
	<path fill="#FFFFF0" transform="matrix(4 0 0 4 530.72 568)" d="M1.6005859 0L1.6005859 -15.748047L13.277344 -15.748047L13.277344 -13.083984L4.7802734 -13.083984L4.7802734 -9.5927734L12.686523 -9.5927734L12.686523 -6.9394531L4.7802734 -6.9394531L4.7802734 -2.6533203L13.578125 -2.6533203L13.578125 0L1.6005859 0Z"/>
	<path fill="#FFFFF0" transform="matrix(4 0 0 4 610.6 568)" d="M0.79492188 -5.1240234L3.8886719 -5.4248047Q4.1679688 -3.8671875 5.0219727 -3.1367188Q5.8759766 -2.40625 7.3261719 -2.40625Q8.8623047 -2.40625 9.6411133 -3.0561523Q10.419922 -3.7060547 10.419922 -4.5761719Q10.419922 -5.1347656 10.092285 -5.5268555Q9.7646484 -5.9189453 8.9482422 -6.2089844Q8.3896484 -6.4023438 6.4023438 -6.8964844Q3.8457031 -7.5302734 2.8144531 -8.4541016Q1.3642578 -9.7539062 1.3642578 -11.623047Q1.3642578 -12.826172 2.0463867 -13.873535Q2.7285156 -14.920898 4.012207 -15.46875Q5.2958984 -16.016602 7.1113281 -16.016602Q10.076172 -16.016602 11.574707 -14.716797Q13.073242 -13.416992 13.148438 -11.24707L9.96875 -11.107422Q9.7646484 -12.321289 9.0932617 -12.853027Q8.421875 -13.384766 7.0791016 -13.384766Q5.6933594 -13.384766 4.9091797 -12.81543Q4.4042969 -12.450195 4.4042969 -11.837891Q4.4042969 -11.279297 4.8769531 -10.881836Q5.4785156 -10.376953 7.7988281 -9.8291016Q10.119141 -9.28125 11.230957 -8.6958008Q12.342773 -8.1103516 12.971191 -7.0952148Q13.599609 -6.0800781 13.599609 -4.5869141Q13.599609 -3.2333984 12.847656 -2.0517578Q12.095703 -0.87011719 10.720703 -0.29541016Q9.3457031 0.27929688 7.2939453 0.27929688Q4.3076172 0.27929688 2.7070312 -1.1010742Q1.1064453 -2.4814453 0.79492188 -5.1240234Z"/>
	<path fill="#FFFFF0" transform="matrix(4 0 0 4 690.48 568)" d="M0.79492188 -5.1240234L3.8886719 -5.4248047Q4.1679688 -3.8671875 5.0219727 -3.1367188Q5.8759766 -2.40625 7.3261719 -2.40625Q8.8623047 -2.40625 9.6411133 -3.0561523Q10.419922 -3.7060547 10.419922 -4.5761719Q10.419922 -5.1347656 10.092285 -5.5268555Q9.7646484 -5.9189453 8.9482422 -6.2089844Q8.3896484 -6.4023438 6.4023438 -6.8964844Q3.8457031 -7.5302734 2.8144531 -8.4541016Q1.3642578 -9.7539062 1.3642578 -11.623047Q1.3642578 -12.826172 2.0463867 -13.873535Q2.7285156 -14.920898 4.012207 -15.46875Q5.2958984 -16.016602 7.1113281 -16.016602Q10.076172 -16.016602 11.574707 -14.716797Q13.073242 -13.416992 13.148438 -11.24707L9.96875 -11.107422Q9.7646484 -12.321289 9.0932617 -12.853027Q8.421875 -13.384766 7.0791016 -13.384766Q5.6933594 -13.384766 4.9091797 -12.81543Q4.4042969 -12.450195 4.4042969 -11.837891Q4.4042969 -11.279297 4.8769531 -10.881836Q5.4785156 -10.376953 7.7988281 -9.8291016Q10.119141 -9.28125 11.230957 -8.6958008Q12.342773 -8.1103516 12.971191 -7.0952148Q13.599609 -6.0800781 13.599609 -4.5869141Q13.599609 -3.2333984 12.847656 -2.0517578Q12.095703 -0.87011719 10.720703 -0.29541016Q9.3457031 0.27929688 7.2939453 0.27929688Q4.3076172 0.27929688 2.7070312 -1.1010742Q1.1064453 -2.4814453 0.79492188 -5.1240234Z"/>
	<path fill="#FFFFF0" transform="matrix(4 0 0 4 816 568)" d="M1.6113281 0L1.6113281 -15.748047L4.7910156 -15.748047L4.7910156 -9.5498047L11.021484 -9.5498047L11.021484 -15.748047L14.201172 -15.748047L14.201172 0L11.021484 0L11.021484 -6.8857422L4.7910156 -6.8857422L4.7910156 0L1.6113281 0Z"/>
	<path fill="#FFFFF0" transform="matrix(4 0 0 4 900.76 568)" d="M1.5791016 -15.748047L4.7587891 -15.748047L4.7587891 -7.21875Q4.7587891 -5.1884766 4.8769531 -4.5869141Q5.0810547 -3.6201172 5.8491211 -3.034668Q6.6171875 -2.4492188 7.9492188 -2.4492188Q9.3027344 -2.4492188 9.9902344 -3.0024414Q10.677734 -3.5556641 10.817383 -4.3613281Q10.957031 -5.1669922 10.957031 -7.0361328L10.957031 -15.748047L14.136719 -15.748047L14.136719 -7.4765625Q14.136719 -4.640625 13.878906 -3.4697266Q13.621094 -2.2988281 12.928223 -1.4931641Q12.235352 -0.6875 11.075195 -0.20947266Q9.9150391 0.26855469 8.0458984 0.26855469Q5.7900391 0.26855469 4.6245117 -0.25244141Q3.4589844 -0.7734375 2.7822266 -1.605957Q2.1054688 -2.4384766 1.890625 -3.3515625Q1.5791016 -4.7050781 1.5791016 -7.3476562L1.5791016 -15.748047Z"/>
	<path fill="#FFFFF0" transform="matrix(4 0 0 4 985.52 568)" d="M1.6113281 -15.748047L7.90625 -15.748047Q9.7753906 -15.748047 10.693848 -15.592285Q11.612305 -15.436523 12.337402 -14.942383Q13.0625 -14.448242 13.545898 -13.626465Q14.029297 -12.804688 14.029297 -11.78418Q14.029297 -10.677734 13.433105 -9.7539062Q12.836914 -8.8300781 11.816406 -8.3681641Q13.255859 -7.9492188 14.029297 -6.9394531Q14.802734 -5.9296875 14.802734 -4.5654297Q14.802734 -3.4912109 14.303223 -2.4760742Q13.803711 -1.4609375 12.938965 -0.85400391Q12.074219 -0.24707031 10.806641 -0.10742188Q10.011719 -0.021484375 6.9716797 0L1.6113281 0L1.6113281 -15.748047ZM4.7910156 -13.126953L4.7910156 -9.4853516L6.875 -9.4853516Q8.7333984 -9.4853516 9.1845703 -9.5390625Q10.000977 -9.6357422 10.468262 -10.103027Q10.935547 -10.570312 10.935547 -11.333008Q10.935547 -12.063477 10.532715 -12.52002Q10.129883 -12.976562 9.3349609 -13.073242Q8.8623047 -13.126953 6.6171875 -13.126953L4.7910156 -13.126953ZM4.7910156 -6.8642578L4.7910156 -2.6533203L7.734375 -2.6533203Q9.453125 -2.6533203 9.9150391 -2.75Q10.624023 -2.8789062 11.069824 -3.378418Q11.515625 -3.8779297 11.515625 -4.7158203Q11.515625 -5.4248047 11.171875 -5.9189453Q10.828125 -6.4130859 10.178223 -6.6386719Q9.5283203 -6.8642578 7.3583984 -6.8642578L4.7910156 -6.8642578Z"/>
	<path fill="#FFFFF0" transform="matrix(4 0 0 4 233.7 660)" d="M0.76904297 0L0.76904297 -7.5161133L3.5888672 -7.5161133Q4.4501953 -7.5161133 4.9705811 -7.2879639Q5.4909668 -7.0598145 5.7857666 -6.5855713Q6.0805664 -6.1113281 6.0805664 -5.5935059Q6.0805664 -5.1115723 5.8190918 -4.6860352Q5.5576172 -4.260498 5.029541 -3.9990234Q5.7114258 -3.7990723 6.0780029 -3.3171387Q6.4445801 -2.8352051 6.4445801 -2.1789551Q6.4445801 -1.6508789 6.2215576 -1.1971436Q5.9985352 -0.7434082 5.6704102 -0.49731445Q5.3422852 -0.2512207 4.8475342 -0.12561035Q4.3527832 0 3.6350098 0L0.76904297 0ZM1.7636719 -4.3579102L3.388916 -4.3579102Q4.050293 -4.3579102 4.3374023 -4.4450684Q4.7167969 -4.5578613 4.9090576 -4.8193359Q5.1013184 -5.0808105 5.1013184 -5.4755859Q5.1013184 -5.8498535 4.921875 -6.1343994Q4.7424316 -6.4189453 4.4091797 -6.5240479Q4.0759277 -6.6291504 3.2658691 -6.6291504L1.7636719 -6.6291504L1.7636719 -4.3579102ZM1.7636719 -0.88696289L3.6350098 -0.88696289Q4.1169434 -0.88696289 4.3117676 -0.92285156Q4.6552734 -0.984375 4.8859863 -1.1279297Q5.1166992 -1.2714844 5.2653809 -1.5457764Q5.4140625 -1.8200684 5.4140625 -2.1789551Q5.4140625 -2.5993652 5.1987305 -2.9095459Q4.9833984 -3.2197266 4.6014404 -3.3453369Q4.2194824 -3.4709473 3.501709 -3.4709473L1.7636719 -3.4709473L1.7636719 -0.88696289Z"/>
	<path fill="#FFFFF0" transform="matrix(4 0 0 4 285.7 660)" d="M5.7421875 -7.5161133L6.7368164 -7.5161133L6.7368164 -3.173584Q6.7368164 -2.0405273 6.4804688 -1.3740234Q6.2241211 -0.70751953 5.5550537 -0.28967285Q4.8859863 0.12817383 3.7990723 0.12817383Q2.7429199 0.12817383 2.0712891 -0.23583984Q1.3996582 -0.59985352 1.1125488 -1.2894287Q0.82543945 -1.9790039 0.82543945 -3.173584L0.82543945 -7.5161133L1.8200684 -7.5161133L1.8200684 -3.1787109Q1.8200684 -2.1994629 2.0020752 -1.7354736Q2.184082 -1.2714844 2.6275635 -1.0202637Q3.0710449 -0.76904297 3.7119141 -0.76904297Q4.809082 -0.76904297 5.2756348 -1.2663574Q5.7421875 -1.7636719 5.7421875 -3.1787109L5.7421875 -7.5161133Z"/>
	<path fill="#FFFFF0" transform="matrix(4 0 0 4 340.02 660)" d="M0.47167969 -2.4147949L1.4099121 -2.4968262Q1.4765625 -1.9328613 1.7200928 -1.5714111Q1.963623 -1.2099609 2.4763184 -0.98693848Q2.9890137 -0.76391602 3.6298828 -0.76391602Q4.1989746 -0.76391602 4.6347656 -0.93310547Q5.0705566 -1.1022949 5.2833252 -1.3970947Q5.4960938 -1.6918945 5.4960938 -2.0405273Q5.4960938 -2.3942871 5.2910156 -2.6583252Q5.0859375 -2.9223633 4.6142578 -3.1018066Q4.3117676 -3.2197266 3.276123 -3.4683838Q2.2404785 -3.717041 1.8251953 -3.9375Q1.2868652 -4.2194824 1.0228271 -4.6373291Q0.75878906 -5.0551758 0.75878906 -5.572998Q0.75878906 -6.1420898 1.0817871 -6.6368408Q1.4047852 -7.1315918 2.0251465 -7.3879395Q2.6455078 -7.6442871 3.4042969 -7.6442871Q4.2399902 -7.6442871 4.8782959 -7.3751221Q5.5166016 -7.105957 5.8601074 -6.5830078Q6.2036133 -6.0600586 6.229248 -5.3986816L5.2756348 -5.3269043Q5.1987305 -6.0395508 4.755249 -6.4035645Q4.3117676 -6.7675781 3.4453125 -6.7675781Q2.5429688 -6.7675781 2.130249 -6.4368896Q1.7175293 -6.1062012 1.7175293 -5.6396484Q1.7175293 -5.2346191 2.0097656 -4.9731445Q2.296875 -4.7116699 3.5093994 -4.4373779Q4.7219238 -4.1630859 5.1730957 -3.9580078Q5.8293457 -3.6555176 6.1420898 -3.1915283Q6.454834 -2.7275391 6.454834 -2.1225586Q6.454834 -1.5227051 6.1113281 -0.99206543Q5.7678223 -0.46142578 5.1243896 -0.16662598Q4.480957 0.12817383 3.6760254 0.12817383Q2.6557617 0.12817383 1.9661865 -0.16918945Q1.2766113 -0.46655273 0.88439941 -1.0638428Q0.4921875 -1.6611328 0.47167969 -2.4147949Z"/>
	<path fill="#FFFFF0" transform="matrix(4 0 0 4 392.02 660)" d="M0.97924805 0L0.97924805 -7.5161133L1.973877 -7.5161133L1.973877 0L0.97924805 0Z"/>
	<path fill="#FFFFF0" transform="matrix(4 0 0 4 427.7 660)" d="M0.79980469 0L0.79980469 -7.5161133L1.8200684 -7.5161133L5.7678223 -1.6149902L5.7678223 -7.5161133L6.7214355 -7.5161133L6.7214355 0L5.7011719 0L1.753418 -5.90625L1.753418 0L0.79980469 0Z"/>
	<path fill="#FFFFF0" transform="matrix(4 0 0 4 482.02 660)" d="M0.83056641 0L0.83056641 -7.5161133L6.2651367 -7.5161133L6.2651367 -6.6291504L1.8251953 -6.6291504L1.8251953 -4.3271484L5.9831543 -4.3271484L5.9831543 -3.4453125L1.8251953 -3.4453125L1.8251953 -0.88696289L6.4394531 -0.88696289L6.4394531 0L0.83056641 0Z"/>
	<path fill="#FFFFF0" transform="matrix(4 0 0 4 534.02 660)" d="M0.47167969 -2.4147949L1.4099121 -2.4968262Q1.4765625 -1.9328613 1.7200928 -1.5714111Q1.963623 -1.2099609 2.4763184 -0.98693848Q2.9890137 -0.76391602 3.6298828 -0.76391602Q4.1989746 -0.76391602 4.6347656 -0.93310547Q5.0705566 -1.1022949 5.2833252 -1.3970947Q5.4960938 -1.6918945 5.4960938 -2.0405273Q5.4960938 -2.3942871 5.2910156 -2.6583252Q5.0859375 -2.9223633 4.6142578 -3.1018066Q4.3117676 -3.2197266 3.276123 -3.4683838Q2.2404785 -3.717041 1.8251953 -3.9375Q1.2868652 -4.2194824 1.0228271 -4.6373291Q0.75878906 -5.0551758 0.75878906 -5.572998Q0.75878906 -6.1420898 1.0817871 -6.6368408Q1.4047852 -7.1315918 2.0251465 -7.3879395Q2.6455078 -7.6442871 3.4042969 -7.6442871Q4.2399902 -7.6442871 4.8782959 -7.3751221Q5.5166016 -7.105957 5.8601074 -6.5830078Q6.2036133 -6.0600586 6.229248 -5.3986816L5.2756348 -5.3269043Q5.1987305 -6.0395508 4.755249 -6.4035645Q4.3117676 -6.7675781 3.4453125 -6.7675781Q2.5429688 -6.7675781 2.130249 -6.4368896Q1.7175293 -6.1062012 1.7175293 -5.6396484Q1.7175293 -5.2346191 2.0097656 -4.9731445Q2.296875 -4.7116699 3.5093994 -4.4373779Q4.7219238 -4.1630859 5.1730957 -3.9580078Q5.8293457 -3.6555176 6.1420898 -3.1915283Q6.454834 -2.7275391 6.454834 -2.1225586Q6.454834 -1.5227051 6.1113281 -0.99206543Q5.7678223 -0.46142578 5.1243896 -0.16662598Q4.480957 0.12817383 3.6760254 0.12817383Q2.6557617 0.12817383 1.9661865 -0.16918945Q1.2766113 -0.46655273 0.88439941 -1.0638428Q0.4921875 -1.6611328 0.47167969 -2.4147949Z"/>
	<path fill="#FFFFF0" transform="matrix(4 0 0 4 586.02 660)" d="M0.47167969 -2.4147949L1.4099121 -2.4968262Q1.4765625 -1.9328613 1.7200928 -1.5714111Q1.963623 -1.2099609 2.4763184 -0.98693848Q2.9890137 -0.76391602 3.6298828 -0.76391602Q4.1989746 -0.76391602 4.6347656 -0.93310547Q5.0705566 -1.1022949 5.2833252 -1.3970947Q5.4960938 -1.6918945 5.4960938 -2.0405273Q5.4960938 -2.3942871 5.2910156 -2.6583252Q5.0859375 -2.9223633 4.6142578 -3.1018066Q4.3117676 -3.2197266 3.276123 -3.4683838Q2.2404785 -3.717041 1.8251953 -3.9375Q1.2868652 -4.2194824 1.0228271 -4.6373291Q0.75878906 -5.0551758 0.75878906 -5.572998Q0.75878906 -6.1420898 1.0817871 -6.6368408Q1.4047852 -7.1315918 2.0251465 -7.3879395Q2.6455078 -7.6442871 3.4042969 -7.6442871Q4.2399902 -7.6442871 4.8782959 -7.3751221Q5.5166016 -7.105957 5.8601074 -6.5830078Q6.2036133 -6.0600586 6.229248 -5.3986816L5.2756348 -5.3269043Q5.1987305 -6.0395508 4.755249 -6.4035645Q4.3117676 -6.7675781 3.4453125 -6.7675781Q2.5429688 -6.7675781 2.130249 -6.4368896Q1.7175293 -6.1062012 1.7175293 -5.6396484Q1.7175293 -5.2346191 2.0097656 -4.9731445Q2.296875 -4.7116699 3.5093994 -4.4373779Q4.7219238 -4.1630859 5.1730957 -3.9580078Q5.8293457 -3.6555176 6.1420898 -3.1915283Q6.454834 -2.7275391 6.454834 -2.1225586Q6.454834 -1.5227051 6.1113281 -0.99206543Q5.7678223 -0.46142578 5.1243896 -0.16662598Q4.480957 0.12817383 3.6760254 0.12817383Q2.6557617 0.12817383 1.9661865 -0.16918945Q1.2766113 -0.46655273 0.88439941 -1.0638428Q0.4921875 -1.6611328 0.47167969 -2.4147949Z"/>
	<path fill="#FFFFF0" transform="matrix(4 0 0 4 673.7 660)" d="M6.1728516 -2.6352539L7.1674805 -2.3840332Q6.8547363 -1.1586914 6.0421143 -0.51525879Q5.2294922 0.12817383 4.0554199 0.12817383Q2.840332 0.12817383 2.0789795 -0.36657715Q1.317627 -0.86132812 0.92028809 -1.7995605Q0.52294922 -2.737793 0.52294922 -3.8144531Q0.52294922 -4.9885254 0.97155762 -5.8626709Q1.420166 -6.7368164 2.2481689 -7.1905518Q3.0761719 -7.6442871 4.0708008 -7.6442871Q5.1987305 -7.6442871 5.9677734 -7.0700684Q6.7368164 -6.4958496 7.0393066 -5.4550781L6.0600586 -5.2243652Q5.798584 -6.0446777 5.3012695 -6.4189453Q4.8039551 -6.7932129 4.050293 -6.7932129Q3.1838379 -6.7932129 2.6019287 -6.3779297Q2.0200195 -5.9626465 1.7841797 -5.2628174Q1.5483398 -4.5629883 1.5483398 -3.8195801Q1.5483398 -2.8608398 1.8277588 -2.1456299Q2.1071777 -1.4304199 2.6967773 -1.0766602Q3.286377 -0.72290039 3.9733887 -0.72290039Q4.809082 -0.72290039 5.3884277 -1.204834Q5.9677734 -1.6867676 6.1728516 -2.6352539Z"/>
	<path fill="#FFFFF0" transform="matrix(4 0 0 4 728.02 660)" d="M0.83056641 0L0.83056641 -7.5161133L6.2651367 -7.5161133L6.2651367 -6.6291504L1.8251953 -6.6291504L1.8251953 -4.3271484L5.9831543 -4.3271484L5.9831543 -3.4453125L1.8251953 -3.4453125L1.8251953 -0.88696289L6.4394531 -0.88696289L6.4394531 0L0.83056641 0Z"/>
	<path fill="#FFFFF0" transform="matrix(4 0 0 4 780.02 660)" d="M0.79980469 0L0.79980469 -7.5161133L1.8200684 -7.5161133L5.7678223 -1.6149902L5.7678223 -7.5161133L6.7214355 -7.5161133L6.7214355 0L5.7011719 0L1.753418 -5.90625L1.753418 0L0.79980469 0Z"/>
	<path fill="#FFFFF0" transform="matrix(4 0 0 4 834.34 660)" d="M2.7224121 0L2.7224121 -6.6291504L0.24609375 -6.6291504L0.24609375 -7.5161133L6.2036133 -7.5161133L6.2036133 -6.6291504L3.717041 -6.6291504L3.717041 0L2.7224121 0Z"/>
	<path fill="#FFFFF0" transform="matrix(4 0 0 4 883.98 660)" d="M0.82543945 0L0.82543945 -7.5161133L4.157959 -7.5161133Q5.1628418 -7.5161133 5.685791 -7.3135986Q6.2087402 -7.111084 6.5214844 -6.5983887Q6.8342285 -6.0856934 6.8342285 -5.465332Q6.8342285 -4.6655273 6.3164062 -4.1169434Q5.798584 -3.5683594 4.7167969 -3.4196777Q5.1115723 -3.2299805 5.3166504 -3.0454102Q5.7524414 -2.6455078 6.1420898 -2.0456543L7.4494629 0L6.1984863 0L5.2038574 -1.5637207Q4.7680664 -2.2404785 4.486084 -2.5993652Q4.2041016 -2.958252 3.9810791 -3.1018066Q3.7580566 -3.2453613 3.5273438 -3.3017578Q3.3581543 -3.3376465 2.9736328 -3.3376465L1.8200684 -3.3376465L1.8200684 0L0.82543945 0ZM1.8200684 -4.1989746L3.9580078 -4.1989746Q4.6398926 -4.1989746 5.0244141 -4.3399658Q5.4089355 -4.480957 5.6088867 -4.7911377Q5.8088379 -5.1013184 5.8088379 -5.465332Q5.8088379 -5.9985352 5.4217529 -6.342041Q5.034668 -6.6855469 4.1989746 -6.6855469L1.8200684 -6.6855469L1.8200684 -4.1989746Z"/>
	<path fill="#FFFFF0" transform="matrix(4 0 0 4 938.3 660)" d="M0.83056641 0L0.83056641 -7.5161133L6.2651367 -7.5161133L6.2651367 -6.6291504L1.8251953 -6.6291504L1.8251953 -4.3271484L5.9831543 -4.3271484L5.9831543 -3.4453125L1.8251953 -3.4453125L1.8251953 -0.88696289L6.4394531 -0.88696289L6.4394531 0L0.83056641 0Z"/>
</svg>
